<svg width="150" height="127" viewBox="0 0 150 127" fill="none" xmlns="http://www.w3.org/2000/svg">
<g clip-path="url(#clip0_715_235)">
<path d="M108.068 107.004H89.2749V77.8627C89.2749 70.9138 89.1496 61.9684 79.5006 61.9684C69.7125 61.9684 68.2149 69.5396 68.2149 77.3568V107.002H49.4218V47.0762H67.4631V55.2657H67.7157C69.5212 52.209 72.1302 49.6945 75.2649 47.9898C78.3995 46.2852 81.9425 45.4543 85.5163 45.5857C104.564 45.5857 108.076 57.991 108.076 74.1295L108.068 107.004ZM28.217 38.8849C26.06 38.8852 23.9513 38.2523 22.1576 37.0661C20.3639 35.8798 18.9659 34.1936 18.1401 32.2206C17.3143 30.2476 17.0979 28.0764 17.5183 25.9816C17.9388 23.8869 18.9771 21.9626 20.5021 20.4521C22.027 18.9417 23.9701 17.9129 26.0855 17.4958C28.201 17.0788 30.3938 17.2923 32.3867 18.1092C34.3796 18.9262 36.0831 20.3099 37.2818 22.0855C38.4805 23.8611 39.1205 25.9488 39.1209 28.0845C39.1211 29.5026 38.8393 30.9068 38.2914 32.217C37.7436 33.5272 36.9406 34.7178 35.9281 35.7207C34.9155 36.7236 33.7133 37.5192 32.3903 38.0621C31.0672 38.605 29.6491 38.8846 28.217 38.8849ZM37.6135 107.004H18.8009V47.0762H37.6135V107.004ZM117.437 0.00776265H9.3574C6.90429 -0.019648 4.54044 0.918381 2.78547 2.61572C1.0305 4.31306 0.0279857 6.63085 -0.00195312 9.05976V116.519C0.026961 118.949 1.02889 121.268 2.7838 122.967C4.5387 124.667 6.90308 125.606 9.3574 125.581H117.437C119.896 125.611 122.267 124.674 124.029 122.975C125.791 121.276 126.8 118.954 126.834 116.519V9.05201C126.798 6.61828 125.789 4.29786 124.027 2.60056C122.265 0.903257 119.895 -0.0320918 117.437 6.19615e-06" fill="#0A66C2"/>
</g>
<defs>
<clipPath id="clip0_715_235">
<rect width="150" height="126.623" fill="white"/>
</clipPath>
</defs>
</svg>
