<?xml version="1.0" encoding="utf-8"?>
<!-- Generator: Adobe Illustrator 23.0.3, SVG Export Plug-In . SVG Version: 6.00 Build 0)  -->
<svg version="1.1" id="Layer_1" xmlns="http://www.w3.org/2000/svg" xmlns:xlink="http://www.w3.org/1999/xlink" x="0px" y="0px"
	 viewBox="0 0 518 120" style="enable-background:new 0 0 518 120;" xml:space="preserve">
<style type="text/css">
	.st0{fill:#0991BB;}
	.st1{fill:#B1581E;}
</style>
<g>
	<g>
		<path class="st0" d="M175.5,90.8c-5,0-9.9-0.7-14.5-2c-4.7-1.3-8.4-3.1-11.2-5.3l5-11c2.6,1.9,5.8,3.5,9.5,4.7
			c3.7,1.2,7.5,1.8,11.3,1.8c2.9,0,5.2-0.3,7-0.9c1.8-0.6,3.1-1.4,3.9-2.4c0.8-1,1.3-2.1,1.3-3.5c0-1.7-0.7-3-2-4
			c-1.3-1-3.1-1.8-5.3-2.4c-2.2-0.6-4.6-1.2-7.2-1.8c-2.6-0.6-5.2-1.3-7.8-2.1c-2.6-0.8-5-1.9-7.2-3.2c-2.2-1.4-3.9-3.1-5.2-5.3
			c-1.3-2.2-1.9-4.9-1.9-8.2c0-3.6,1-6.9,2.9-9.9c1.9-3,4.8-5.3,8.8-7.1c3.9-1.8,8.9-2.7,14.8-2.7c4,0,7.9,0.5,11.7,1.4
			c3.9,1,7.2,2.3,10.1,4.1l-4.6,11c-2.8-1.6-5.7-2.8-8.7-3.6c-3-0.8-5.9-1.2-8.6-1.2c-2.9,0-5.2,0.3-6.9,0.9c-1.7,0.6-3,1.5-3.8,2.6
			c-0.8,1.1-1.2,2.3-1.2,3.6c0,1.7,0.7,3,2,4c1.3,1,3.1,1.8,5.2,2.4c2.2,0.6,4.6,1.1,7.2,1.7c2.6,0.6,5.2,1.3,7.8,2.1
			c2.6,0.8,5,1.9,7.1,3.2c2.2,1.3,3.9,3,5.3,5.2c1.3,2.2,2,4.9,2,8.1c0,3.5-1,6.8-2.9,9.7c-2,2.9-4.9,5.3-8.9,7.1
			S181.4,90.8,175.5,90.8z"/>
		<path class="st0" d="M226.5,78h34.3v11.7H212v-63h47.6v11.7h-33.1V78z M225.4,52h30.3v11.4h-30.3V52z"/>
		<path class="st0" d="M272.4,89.7v-63h12.1l37.2,45.4h-5.8V26.7h14.4v63h-12.1l-37.2-45.4h5.8v45.4H272.4z"/>
		<path class="st0" d="M345.1,89.7v-63h14.7v63H345.1z"/>
		<path class="st0" d="M405.1,90.8c-5,0-9.6-0.8-13.8-2.4c-4.2-1.6-7.8-3.9-10.9-6.8c-3.1-2.9-5.4-6.4-7.2-10.4s-2.6-8.3-2.6-13
			c0-4.7,0.9-9.1,2.6-13s4.1-7.4,7.2-10.4c3.1-2.9,6.8-5.2,11-6.8c4.2-1.6,8.8-2.4,13.9-2.4c5.6,0,10.6,0.9,15.1,2.8
			c4.5,1.9,8.2,4.6,11.3,8.1l-9.3,8.6c-2.3-2.5-4.9-4.3-7.6-5.4S409.2,38,406,38c-3,0-5.8,0.5-8.3,1.5c-2.5,1-4.7,2.4-6.5,4.2
			c-1.8,1.8-3.2,3.9-4.2,6.4c-1,2.5-1.5,5.2-1.5,8.2c0,2.9,0.5,5.6,1.5,8.1c1,2.5,2.4,4.6,4.2,6.4c1.8,1.8,4,3.2,6.5,4.2
			c2.5,1,5.2,1.5,8.2,1.5c2.9,0,5.7-0.5,8.4-1.4c2.7-1,5.4-2.5,8-4.8l8.3,10.5c-3.5,2.6-7.5,4.6-12,6
			C414.1,90.2,409.6,90.8,405.1,90.8z M417.2,80.9V57.3h13.3v25.6L417.2,80.9z"/>
		<path class="st0" d="M474.5,90.8c-4.9,0-9.5-0.8-13.7-2.4c-4.2-1.6-7.9-3.9-11-6.8c-3.1-2.9-5.5-6.4-7.2-10.3s-2.6-8.3-2.6-13
			c0-4.7,0.9-9.1,2.6-13c1.7-3.9,4.1-7.4,7.2-10.3c3.1-2.9,6.8-5.2,10.9-6.8c4.2-1.6,8.7-2.4,13.7-2.4c5,0,9.6,0.8,13.7,2.4
			c4.2,1.6,7.8,3.9,10.9,6.8c3.1,2.9,5.5,6.4,7.2,10.4s2.6,8.3,2.6,13c0,4.7-0.9,9-2.6,13c-1.7,4-4.1,7.5-7.2,10.4
			c-3.1,2.9-6.8,5.2-10.9,6.8C484.1,90,479.5,90.8,474.5,90.8z M474.5,78.5c2.8,0,5.4-0.5,7.8-1.5c2.4-1,4.5-2.4,6.3-4.2
			c1.8-1.8,3.2-4,4.2-6.4c1-2.4,1.5-5.1,1.5-8.1c0-3-0.5-5.7-1.5-8.1s-2.4-4.6-4.2-6.4c-1.8-1.8-3.9-3.2-6.3-4.2
			c-2.4-1-5-1.5-7.8-1.5c-2.8,0-5.4,0.5-7.8,1.5c-2.4,1-4.5,2.4-6.3,4.2c-1.8,1.8-3.1,4-4.1,6.4s-1.5,5.1-1.5,8.1
			c0,3,0.5,5.7,1.5,8.1c1,2.4,2.4,4.6,4.1,6.4c1.8,1.8,3.9,3.2,6.3,4.2C469.1,78,471.7,78.5,474.5,78.5z"/>
	</g>
</g>
<g>
	<path class="st1" d="M62.6,55V2.7L2.1,63.2h52.3C59,63.2,62.6,59.5,62.6,55z"/>
	<path class="st1" d="M65,58.5c-4.5,0-8.1,3.6-8.1,8.1V119l60.5-60.5H65z"/>
</g>
</svg>
